<svg width="31px" height="32px" viewBox="0 0 31 32" fill="none" xmlns="http://www.w3.org/2000/svg">
<path d="M9.20312 0C9.58852 0 9.95813 0.153097 10.2306 0.42561C10.5032 0.698124 10.6562 1.06773 10.6562 1.45312V3.875H20.3438V1.45312C20.3438 1.06773 20.4968 0.698124 20.7694 0.42561C21.0419 0.153097 21.4115 0 21.7969 0C22.1823 0 22.5519 0.153097 22.8244 0.42561C23.0969 0.698124 23.25 1.06773 23.25 1.45312V3.875H25.6719C27.5435 3.875 29.0625 5.394 29.0625 7.26562V27.6094C29.0625 28.5086 28.7053 29.371 28.0694 30.0069C27.4335 30.6428 26.5711 31 25.6719 31H5.32812C4.42888 31 3.56646 30.6428 2.93059 30.0069C2.29473 29.371 1.9375 28.5086 1.9375 27.6094V7.26562C1.9375 5.394 3.4565 3.875 5.32812 3.875H7.75V1.45312C7.75 1.06773 7.9031 0.698124 8.17561 0.42561C8.44812 0.153097 8.81773 0 9.20312 0ZM25.6719 6.78125H5.32812C5.19966 6.78125 5.07646 6.83228 4.98562 6.92312C4.89478 7.01396 4.84375 7.13716 4.84375 7.26562V11.625H26.1562V7.26562C26.1562 7.13716 26.1052 7.01396 26.0144 6.92312C25.9235 6.83228 25.8003 6.78125 25.6719 6.78125Z" fill="#ffffff"/>
</svg>
