<svg width="26" height="26" viewBox="0 0 26 26" fill="none" xmlns="http://www.w3.org/2000/svg">
<path d="M12.5694 8.63889C9.86103 8.63889 7.70825 10.7917 7.70825 13.5C7.70825 16.2083 9.86103 18.3611 12.5694 18.3611C15.2777 18.3611 17.4305 16.2083 17.4305 13.5C17.4305 10.7917 15.2777 8.63889 12.5694 8.63889ZM12.5694 16.9722C10.6249 16.9722 9.09714 15.4444 9.09714 13.5C9.09714 11.5556 10.6249 10.0278 12.5694 10.0278C14.5138 10.0278 16.0416 11.5556 16.0416 13.5C16.0416 15.4444 14.5138 16.9722 12.5694 16.9722Z" fill="white"/>
<path d="M22.7778 11.2083L20.8334 10.5833L20.4167 9.54166L21.3889 7.73611C21.5972 7.31944 21.5278 6.76389 21.1806 6.41666L19.5139 4.75C19.1667 4.40277 18.6111 4.33333 18.1945 4.54166L16.3889 5.51389L15.3472 5.09722L14.7222 3.15277C14.5834 2.73611 14.1667 2.38889 13.6806 2.38889H11.3195C10.8334 2.38889 10.4167 2.73611 10.3472 3.22222L9.72225 5.16666C9.30558 5.23611 8.95836 5.375 8.61114 5.58333L6.80558 4.61111C6.38892 4.40277 5.83336 4.47222 5.48614 4.81944L3.81947 6.48611C3.47225 6.83333 3.4028 7.38889 3.61114 7.80555L4.51392 9.54166C4.37503 9.88889 4.23614 10.3056 4.09725 10.6528L2.1528 11.2778C1.73614 11.4167 1.38892 11.8333 1.38892 12.3194V14.6806C1.38892 15.1667 1.73614 15.5833 2.22225 15.7222L4.16669 16.3472L4.58336 17.3889L3.61114 19.1944C3.4028 19.6111 3.47225 20.1667 3.81947 20.5139L5.48614 22.1806C5.83336 22.5278 6.38892 22.5972 6.80558 22.3889L8.61114 21.4167L9.6528 21.8333L10.2778 23.8472C10.4167 24.2639 10.8334 24.6111 11.3195 24.6111H13.6806C14.1667 24.6111 14.5834 24.2639 14.7222 23.8472L15.3472 21.8333L16.3889 21.4167L18.1945 22.3889C18.6111 22.5972 19.1667 22.5278 19.5139 22.1806L21.1806 20.5139C21.5278 20.1667 21.5972 19.6111 21.3889 19.1944L20.4167 17.3889L20.8334 16.3472L22.8472 15.7222C23.2639 15.5833 23.6111 15.1667 23.6111 14.6806V12.3194C23.6111 11.8333 23.2639 11.3472 22.7778 11.2083ZM22.2222 14.4722L19.7222 15.2361L19.6528 15.5833L19.0278 17.0417L18.8195 17.3889L20.0695 19.6806L18.6806 21.0694L16.3889 19.8194L16.0417 20.0278C15.5556 20.3056 15.0695 20.5139 14.5834 20.6528L14.2361 20.7222L13.4722 23.2222H11.5278L10.7639 20.7222L10.4167 20.6528L8.95836 20.0278L8.61114 19.8194L6.31947 21.0694L4.93058 19.6806L6.18058 17.3889L5.97225 17.0417C5.69447 16.5556 5.48614 16.0694 5.34725 15.5833L5.2778 15.2361L2.7778 14.4722V12.5278L5.13892 11.8333L5.2778 11.4861C5.41669 10.9306 5.62503 10.4444 5.9028 9.95833L6.11114 9.61111L4.93058 7.31944L6.31947 5.93055L8.54169 7.18055L8.88892 6.97222C9.37503 6.69444 9.86114 6.48611 10.4167 6.34722L10.7639 6.20833L11.5278 3.77777H13.4722L14.2361 6.20833L14.5834 6.34722C15.0695 6.48611 15.5556 6.69444 16.0417 6.97222L16.3889 7.18055L18.6806 5.93055L20.0695 7.31944L18.8195 9.61111L19.0278 9.95833C19.3056 10.4444 19.5139 10.9306 19.6528 11.4167L19.7222 11.7639L22.2222 12.5278V14.4722Z" fill="white"/>
</svg>
