<svg width="120" height="43" viewBox="0 0 120 43" fill="none" xmlns="http://www.w3.org/2000/svg">
<path d="M4.49275 42.2276L30.9332 41.7661C33.0163 41.7297 34.6783 39.8616 34.6388 37.6008L34.1379 8.90517C34.0985 6.64437 32.3723 4.83537 30.2892 4.87173L26.512 4.93766L26.5019 2.35777C26.4986 1.5214 25.812 0.849255 24.9757 0.863852L24.163 0.878038C23.3347 0.892496 22.6749 1.57569 22.6894 2.40399L22.7348 5.00359L11.4032 5.20139L11.3578 2.60178C11.3433 1.77348 10.6601 1.11373 9.83184 1.12819L9.05418 1.14176C8.22587 1.15622 7.56613 1.83941 7.58058 2.66771L7.62596 5.26732L3.84876 5.33325C1.76563 5.36961 0.103647 7.23775 0.14311 9.49856L0.643994 38.1942C0.683456 40.455 2.40962 42.264 4.49275 42.2276ZM3.97354 12.4822C3.9639 11.93 4.40374 11.4745 4.95594 11.4649L29.3967 11.0382C29.9489 11.0286 30.4043 11.4684 30.414 12.0206L30.4506 14.1203C30.4602 14.6725 30.0204 15.128 29.4682 15.1376L5.02749 15.5642C4.47529 15.5739 4.01983 15.134 4.01019 14.5818L3.97354 12.4822Z" fill="white"/>
<path d="M51.4964 12.1987C51.4964 13.6643 51.2219 14.9196 50.6728 15.9646C50.1282 17.0052 49.3843 17.8022 48.4411 18.3557C47.5024 18.9092 46.4375 19.186 45.2464 19.186C44.0552 19.186 42.9881 18.9092 42.0449 18.3557C41.1062 17.7978 40.3623 16.9986 39.8132 15.958C39.2686 14.913 38.9963 13.6599 38.9963 12.1987C38.9963 10.733 39.2686 9.47989 39.8132 8.43932C40.3623 7.39432 41.1062 6.59507 42.0449 6.04157C42.9881 5.48808 44.0552 5.21133 45.2464 5.21133C46.4375 5.21133 47.5024 5.48808 48.4411 6.04157C49.3843 6.59507 50.1282 7.39432 50.6728 8.43932C51.2219 9.47989 51.4964 10.733 51.4964 12.1987ZM49.019 12.1987C49.019 11.1669 48.8574 10.2968 48.5341 9.58837C48.2153 8.87547 47.7725 8.33747 47.2057 7.97438C46.639 7.60686 45.9858 7.4231 45.2464 7.4231C44.5069 7.4231 43.8538 7.60686 43.287 7.97438C42.7202 8.33747 42.2752 8.87547 41.952 9.58837C41.6331 10.2968 41.4737 11.1669 41.4737 12.1987C41.4737 13.2304 41.6331 14.1027 41.952 14.8156C42.2752 15.5241 42.7202 16.062 43.287 16.4296C43.8538 16.7927 44.5069 16.9742 45.2464 16.9742C45.9858 16.9742 46.639 16.7927 47.2057 16.4296C47.7725 16.062 48.2153 15.5241 48.5341 14.8156C48.8574 14.1027 49.019 13.2304 49.019 12.1987ZM55.9372 13.0223V19H53.5328V5.39731H55.884V10.5315H56.0036C56.2427 9.95589 56.6124 9.50203 57.1128 9.16993C57.6176 8.8334 58.2596 8.66514 59.0389 8.66514C59.7474 8.66514 60.3651 8.81348 60.892 9.11015C61.419 9.40682 61.8263 9.84076 62.1142 10.412C62.4064 10.9832 62.5525 11.6806 62.5525 12.5042V19H60.1481V12.8761C60.1481 12.1898 59.971 11.6562 59.6168 11.2754C59.267 10.8902 58.7755 10.6976 58.1423 10.6976C57.7172 10.6976 57.3364 10.7906 56.9999 10.9765C56.6678 11.1581 56.4065 11.4215 56.2161 11.7669C56.0301 12.1123 55.9372 12.5308 55.9372 13.0223ZM69.375 5.39731H72.3904L76.4287 15.2539H76.5881L80.6264 5.39731H83.6419V19H81.2774V9.65479H81.1512L77.3918 18.9601H75.6251L71.8657 9.63486H71.7395V19H69.375V5.39731ZM87.5264 22.8258C87.1987 22.8258 86.8954 22.7992 86.6164 22.7461C86.3419 22.6973 86.1227 22.6398 85.9589 22.5734L86.5168 20.7003C86.8666 20.8022 87.1788 20.8509 87.4533 20.8465C87.7278 20.842 87.9692 20.7557 88.1773 20.5874C88.3898 20.4236 88.5691 20.1491 88.7153 19.7638L88.9212 19.2125L85.2216 8.79798H87.7721L90.1234 16.5026H90.2296L92.5875 8.79798H95.1447L91.0599 20.2354C90.8695 20.7756 90.6171 21.2383 90.3027 21.6236C89.9883 22.0132 89.6031 22.3099 89.147 22.5136C88.6953 22.7217 88.1551 22.8258 87.5264 22.8258Z" fill="white"/>
<path d="M51.34 30.9869H48.8559C48.785 30.5795 48.6544 30.2186 48.464 29.9043C48.2736 29.5854 48.0367 29.3153 47.7533 29.0939C47.4699 28.8725 47.1467 28.7065 46.7836 28.5958C46.4249 28.4807 46.0375 28.4231 45.6213 28.4231C44.8818 28.4231 44.2265 28.6091 43.6552 28.981C43.084 29.3485 42.6368 29.8888 42.3136 30.6017C41.9903 31.3101 41.8287 32.1758 41.8287 33.1987C41.8287 34.2392 41.9903 35.116 42.3136 35.8289C42.6412 36.5373 43.0885 37.0731 43.6552 37.4362C44.2265 37.7949 44.8796 37.9742 45.6146 37.9742C46.022 37.9742 46.4028 37.9211 46.757 37.8148C47.1157 37.7041 47.4367 37.5425 47.7201 37.3299C48.0079 37.1174 48.2493 36.8561 48.4441 36.5462C48.6433 36.2362 48.7806 35.882 48.8559 35.4835L51.34 35.4968C51.247 36.1432 51.0455 36.7499 50.7356 37.3167C50.43 37.8834 50.0293 38.3838 49.5334 38.8177C49.0374 39.2472 48.4574 39.5838 47.7932 39.8273C47.129 40.0664 46.3917 40.186 45.5814 40.186C44.3859 40.186 43.3187 39.9092 42.38 39.3557C41.4413 38.8022 40.7018 38.003 40.1616 36.958C39.6214 35.913 39.3513 34.6599 39.3513 33.1987C39.3513 31.733 39.6236 30.4799 40.1682 29.4393C40.7129 28.3943 41.4546 27.5951 42.3933 27.0416C43.332 26.4881 44.3947 26.2113 45.5814 26.2113C46.3386 26.2113 47.0426 26.3176 47.6935 26.5301C48.3445 26.7427 48.9245 27.0549 49.4337 27.4667C49.943 27.874 50.3614 28.3744 50.6891 28.9677C51.0212 29.5567 51.2381 30.2297 51.34 30.9869ZM56.239 40.2059C55.5925 40.2059 55.0102 40.0908 54.4922 39.8605C53.9785 39.6258 53.5712 39.2805 53.2701 38.8244C52.9734 38.3683 52.825 37.8059 52.825 37.1373C52.825 36.5617 52.9313 36.0857 53.1439 35.7093C53.3564 35.3329 53.6464 35.0318 54.014 34.806C54.3815 34.5802 54.7955 34.4097 55.256 34.2946C55.7209 34.175 56.2014 34.0887 56.6973 34.0355C57.2951 33.9735 57.7799 33.9182 58.1519 33.8695C58.5238 33.8164 58.7939 33.7367 58.9622 33.6304C59.1349 33.5197 59.2212 33.3492 59.2212 33.1189V33.0791C59.2212 32.5787 59.0729 32.1913 58.7762 31.9168C58.4795 31.6422 58.0523 31.505 57.4943 31.505C56.9054 31.505 56.4383 31.6334 56.0929 31.8902C55.7519 32.147 55.5217 32.4503 55.4021 32.8001L53.1571 32.4813C53.3343 31.8614 53.6265 31.3433 54.0339 30.9271C54.4412 30.5065 54.9394 30.1921 55.5283 29.984C56.1172 29.7714 56.7681 29.6651 57.481 29.6651C57.9725 29.6651 58.4618 29.7227 58.9489 29.8378C59.436 29.953 59.881 30.1434 60.2839 30.409C60.6869 30.6703 61.0101 31.0267 61.2537 31.4784C61.5016 31.93 61.6256 32.4946 61.6256 33.1721V40H59.3142V38.5986H59.2345C59.0884 38.8819 58.8825 39.1476 58.6168 39.3956C58.3556 39.6391 58.0257 39.8362 57.6272 39.9867C57.2331 40.1328 56.7704 40.2059 56.239 40.2059ZM56.8633 38.4391C57.346 38.4391 57.7644 38.3439 58.1187 38.1535C58.4729 37.9587 58.7452 37.7019 58.9356 37.3831C59.1305 37.0643 59.2279 36.7167 59.2279 36.3403V35.1381C59.1526 35.2001 59.0242 35.2577 58.8426 35.3108C58.6655 35.3639 58.4663 35.4104 58.2449 35.4503C58.0235 35.4901 57.8043 35.5255 57.5873 35.5565C57.3703 35.5875 57.1822 35.6141 57.0227 35.6362C56.6641 35.685 56.3431 35.7647 56.0597 35.8754C55.7763 35.9861 55.5527 36.141 55.3888 36.3403C55.225 36.5351 55.1431 36.7875 55.1431 37.0975C55.1431 37.5403 55.3047 37.8746 55.6279 38.1004C55.9512 38.3262 56.363 38.4391 56.8633 38.4391ZM66.2606 26.3973V40H63.8562V26.3973H66.2606ZM73.0626 40.1993C72.0397 40.1993 71.1563 39.9867 70.4124 39.5616C69.673 39.1321 69.104 38.5255 68.7055 37.7417C68.3069 36.9536 68.1077 36.0259 68.1077 34.9588C68.1077 33.9093 68.3069 32.9883 68.7055 32.1957C69.1084 31.3987 69.6708 30.7788 70.3925 30.336C71.1143 29.8888 71.9622 29.6651 72.9364 29.6651C73.5651 29.6651 74.1585 29.767 74.7164 29.9707C75.2788 30.1699 75.7747 30.4799 76.2042 30.9005C76.6381 31.3212 76.9791 31.857 77.2271 32.5079C77.475 33.1544 77.599 33.9248 77.599 34.8193V35.5565H69.2368V33.9359H75.2943C75.2898 33.4754 75.1902 33.0658 74.9954 32.7071C74.8005 32.3441 74.5282 32.0585 74.1784 31.8503C73.833 31.6422 73.4301 31.5382 72.9696 31.5382C72.4781 31.5382 72.0464 31.6577 71.6744 31.8968C71.3025 32.1315 71.0124 32.4415 70.8043 32.8267C70.6006 33.2075 70.4966 33.626 70.4921 34.082V35.4968C70.4921 36.0901 70.6006 36.5993 70.8176 37.0244C71.0346 37.4451 71.3379 37.7683 71.7275 37.9941C72.1172 38.2155 72.5733 38.3262 73.0958 38.3262C73.4456 38.3262 73.7622 38.2775 74.0456 38.1801C74.329 38.0783 74.5747 37.9299 74.7828 37.7351C74.9909 37.5403 75.1481 37.2989 75.2544 37.0111L77.4994 37.2635C77.3577 37.8569 77.0876 38.3749 76.6891 38.8177C76.295 39.2561 75.7902 39.5971 75.1747 39.8406C74.5592 40.0797 73.8552 40.1993 73.0626 40.1993ZM81.8505 34.0223V40H79.4461V29.798H81.7442V31.5315H81.8637C82.0984 30.9603 82.4726 30.5065 82.9862 30.1699C83.5043 29.8334 84.1441 29.6651 84.9057 29.6651C85.6098 29.6651 86.2231 29.8157 86.7456 30.1168C87.2725 30.4179 87.6799 30.854 87.9677 31.4253C88.2599 31.9965 88.4038 32.6894 88.3994 33.5042V40H85.995V33.8761C85.995 33.1942 85.8179 32.6607 85.4637 32.2754C85.1139 31.8902 84.629 31.6976 84.0091 31.6976C83.5884 31.6976 83.2143 31.7906 82.8866 31.9765C82.5634 32.1581 82.3087 32.4215 82.1228 32.7669C81.9412 33.1123 81.8505 33.5308 81.8505 34.0223ZM94.4425 40.1793C93.641 40.1793 92.9237 39.9734 92.2905 39.5616C91.6573 39.1498 91.157 38.5521 90.7894 37.7683C90.4219 36.9846 90.2382 36.0325 90.2382 34.9123C90.2382 33.7787 90.4241 32.8223 90.7961 32.043C91.1725 31.2592 91.6795 30.6681 92.3171 30.2696C92.9547 29.8666 93.6654 29.6651 94.4492 29.6651C95.0469 29.6651 95.5384 29.767 95.9237 29.9707C96.3089 30.1699 96.6144 30.4113 96.8403 30.6946C97.0661 30.9736 97.241 31.2371 97.365 31.485H97.4646V26.3973H99.8756V40H97.5111V38.3927H97.365C97.241 38.6406 97.0616 38.9041 96.827 39.183C96.5923 39.4576 96.2823 39.6923 95.8971 39.8871C95.5119 40.0819 95.027 40.1793 94.4425 40.1793ZM95.1133 38.2067C95.6226 38.2067 96.0565 38.0694 96.4152 37.7949C96.7738 37.5159 97.0462 37.1285 97.2321 36.6325C97.4181 36.1366 97.5111 35.5588 97.5111 34.899C97.5111 34.2392 97.4181 33.6658 97.2321 33.1787C97.0506 32.6917 96.7805 32.3131 96.4218 32.043C96.0676 31.7728 95.6314 31.6378 95.1133 31.6378C94.5776 31.6378 94.1303 31.7773 93.7717 32.0562C93.413 32.3352 93.1429 32.7204 92.9614 33.2119C92.7798 33.7034 92.689 34.2658 92.689 34.899C92.689 35.5366 92.7798 36.1056 92.9614 36.606C93.1473 37.1019 93.4197 37.4938 93.7783 37.7816C94.1414 38.065 94.5864 38.2067 95.1133 38.2067ZM105.186 40.2059C104.54 40.2059 103.958 40.0908 103.44 39.8605C102.926 39.6258 102.519 39.2805 102.217 38.8244C101.921 38.3683 101.772 37.8059 101.772 37.1373C101.772 36.5617 101.879 36.0857 102.091 35.7093C102.304 35.3329 102.594 35.0318 102.961 34.806C103.329 34.5802 103.743 34.4097 104.203 34.2946C104.668 34.175 105.149 34.0887 105.645 34.0355C106.243 33.9735 106.727 33.9182 107.099 33.8695C107.471 33.8164 107.741 33.7367 107.91 33.6304C108.082 33.5197 108.169 33.3492 108.169 33.1189V33.0791C108.169 32.5787 108.02 32.1913 107.724 31.9168C107.427 31.6422 107 31.505 106.442 31.505C105.853 31.505 105.386 31.6334 105.04 31.8902C104.699 32.147 104.469 32.4503 104.35 32.8001L102.105 32.4813C102.282 31.8614 102.574 31.3433 102.981 30.9271C103.389 30.5065 103.887 30.1921 104.476 29.984C105.065 29.7714 105.716 29.6651 106.428 29.6651C106.92 29.6651 107.409 29.7227 107.896 29.8378C108.383 29.953 108.828 30.1434 109.231 30.409C109.634 30.6703 109.958 31.0267 110.201 31.4784C110.449 31.93 110.573 32.4946 110.573 33.1721V40H108.262V38.5986H108.182C108.036 38.8819 107.83 39.1476 107.564 39.3956C107.303 39.6391 106.973 39.8362 106.575 39.9867C106.181 40.1328 105.718 40.2059 105.186 40.2059ZM105.811 38.4391C106.293 38.4391 106.712 38.3439 107.066 38.1535C107.42 37.9587 107.693 37.7019 107.883 37.3831C108.078 37.0643 108.175 36.7167 108.175 36.3403V35.1381C108.1 35.2001 107.972 35.2577 107.79 35.3108C107.613 35.3639 107.414 35.4104 107.192 35.4503C106.971 35.4901 106.752 35.5255 106.535 35.5565C106.318 35.5875 106.13 35.6141 105.97 35.6362C105.612 35.685 105.291 35.7647 105.007 35.8754C104.724 35.9861 104.5 36.141 104.336 36.3403C104.172 36.5351 104.091 36.7875 104.091 37.0975C104.091 37.5403 104.252 37.8746 104.575 38.1004C104.899 38.3262 105.31 38.4391 105.811 38.4391ZM112.804 40V29.798H115.135V31.4983H115.241C115.427 30.9094 115.746 30.4555 116.198 30.1367C116.654 29.8135 117.174 29.6519 117.759 29.6519C117.891 29.6519 118.04 29.6585 118.204 29.6718C118.372 29.6806 118.511 29.6961 118.622 29.7183V31.93C118.52 31.8946 118.359 31.8636 118.137 31.8371C117.92 31.8061 117.71 31.7906 117.506 31.7906C117.068 31.7906 116.674 31.8858 116.324 32.0762C115.979 32.2621 115.706 32.5212 115.507 32.8533C115.308 33.1854 115.208 33.5684 115.208 34.0023V40H112.804Z" fill="white"/>
</svg>
