<svg width="30" height="30" viewBox="0 0 30 30" fill="none" xmlns="http://www.w3.org/2000/svg">
<path d="M25.8375 7.91273C26.1009 8.1764 26.2488 8.53382 26.2488 8.90648C26.2488 9.27914 26.1009 9.63656 25.8375 9.90023L12.2438 23.494C11.9801 23.7573 11.6227 23.9052 11.25 23.9052C10.8774 23.9052 10.52 23.7573 10.2563 23.494L4.16253 17.4002C3.91427 17.1335 3.77907 16.7809 3.78537 16.4165C3.79166 16.0522 3.93895 15.7045 4.19628 15.4465C4.45429 15.1891 4.80201 15.0419 5.16635 15.0356C5.5307 15.0293 5.88329 15.1645 6.15003 15.4127L11.25 20.5127L23.85 7.91273C24.1137 7.64938 24.4711 7.50146 24.8438 7.50146C25.2164 7.50146 25.5739 7.64938 25.8375 7.91273Z" fill="#547AFF"/>
</svg>
